<svg width="34" height="29" viewBox="0 0 34 29" fill="none" xmlns="http://www.w3.org/2000/svg">
<path d="M0.821553 17.1672C-0.118813 17.2337 -0.22076 15.1851 0.35796 8.43826C0.975472 1.29681 1.38609 -0.257159 2.47564 0.0322162C3.96879 0.447621 2.33942 17.0226 0.821553 17.1672Z" fill="#FF5900"/>
<path d="M33.7901 22.2968C33.8004 24.9694 33.318 25.3145 27.1301 27.077C20.7409 28.9037 19.505 29.0219 19.0439 27.9161C18.2165 25.9079 19.7445 24.9105 27.5281 22.2778C33.2719 20.3385 33.7825 20.3242 33.7901 22.2968Z" fill="#FF5900"/>
<path d="M24.0315 7.55115C24.0658 9.47274 23.6653 10.1739 21.2687 12.4466C14.1324 19.1626 9.5977 24.4962 9.61017 20.7546C9.60429 19.2274 10.7949 17.8493 18.8664 9.73051C23.3508 5.26246 23.9678 4.98059 24.0315 7.55115Z" fill="#FF5900"/>
</svg>
